<svg xmlns='http://www.w3.org/2000/svg' width='1920' height='1080'>
<rect width='100%' height='100%' fill='#000'/>
<g fill='#fff'><circle cx="1698" cy="659" r="1.5"/><circle cx="58" cy="804" r="2"/><circle cx="1909" cy="824" r="1.5"/><circle cx="252" cy="121" r="1.5"/><circle cx="1273" cy="805" r="1"/><circle cx="1125" cy="852" r="1"/><circle cx="1096" cy="574" r="1.5"/><circle cx="76" cy="322" r="1.5"/><circle cx="904" cy="141" r="2"/><circle cx="939" cy="964" r="2"/><circle cx="547" cy="617" r="1.5"/><circle cx="348" cy="291" r="2"/><circle cx="716" cy="238" r="2"/><circle cx="1690" cy="554" r="2"/><circle cx="827" cy="383" r="1.5"/><circle cx="1585" cy="7" r="1"/><circle cx="822" cy="912" r="2"/><circle cx="1088" cy="905" r="2"/><circle cx="255" cy="459" r="2"/><circle cx="1597" cy="1053" r="2"/><circle cx="1398" cy="700" r="2"/><circle cx="905" cy="526" r="2"/><circle cx="1399" cy="715" r="1.5"/><circle cx="100" cy="455" r="1.5"/><circle cx="1486" cy="548" r="2"/><circle cx="1743" cy="259" r="1.5"/><circle cx="443" cy="960" r="2"/><circle cx="739" cy="112" r="1"/><circle cx="403" cy="975" r="2"/><circle cx="1670" cy="1000" r="2"/><circle cx="780" cy="758" r="1"/><circle cx="1875" cy="381" r="1"/><circle cx="747" cy="357" r="1.5"/><circle cx="1616" cy="696" r="2"/><circle cx="981" cy="253" r="2"/><circle cx="56" cy="894" r="1.5"/><circle cx="1499" cy="191" r="1"/><circle cx="1389" cy="492" r="1"/><circle cx="112" cy="172" r="1"/><circle cx="1096" cy="683" r="1.5"/><circle cx="1378" cy="587" r="1.5"/><circle cx="402" cy="481" r="2"/><circle cx="1219" cy="801" r="2"/><circle cx="113" cy="700" r="1.5"/><circle cx="812" cy="258" r="1.5"/><circle cx="1445" cy="340" r="1"/><circle cx="1595" cy="672" r="1.5"/><circle cx="1055" cy="979" r="1.5"/><circle cx="499" cy="949" r="1.5"/><circle cx="165" cy="901" r="1.5"/><circle cx="885" cy="68" r="2"/><circle cx="1716" cy="186" r="2"/><circle cx="841" cy="114" r="2"/><circle cx="565" cy="788" r="2"/><circle cx="645" cy="407" r="1.5"/><circle cx="1839" cy="243" r="1.5"/><circle cx="467" cy="629" r="2"/><circle cx="1768" cy="384" r="2"/><circle cx="938" cy="540" r="1.5"/><circle cx="251" cy="717" r="1.5"/><circle cx="545" cy="1004" r="1.5"/><circle cx="1490" cy="611" r="1"/><circle cx="229" cy="248" r="1"/><circle cx="605" cy="486" r="1.5"/><circle cx="1247" cy="388" r="1.5"/><circle cx="855" cy="1040" r="2"/><circle cx="1096" cy="250" r="1"/><circle cx="1830" cy="426" r="1.5"/><circle cx="198" cy="635" r="1"/><circle cx="1641" cy="1062" r="1.5"/><circle cx="1049" cy="785" r="1.5"/><circle cx="446" cy="1057" r="1.5"/><circle cx="428" cy="1041" r="1"/><circle cx="936" cy="267" r="1"/><circle cx="446" cy="1008" r="2"/><circle cx="1163" cy="262" r="2"/><circle cx="792" cy="28" r="2"/><circle cx="95" cy="872" r="1.5"/><circle cx="1781" cy="1070" r="2"/><circle cx="623" cy="332" r="1.5"/></g>
</svg>
